PathFileType	4	(X/Y/Z)	C:/Users/opensim2020/Desktop/walking_exp_matlab/subject06_walking22_straight_02.trc	
DataRate	CameraRate	NumFrames	NumMarkers	Units	OrigDataRate	OrigDataStartFrame	OrigNumFrames	
100.00	100.00	7	44	mm	100.00	1309	81	
Frame#	Time	LFHD			RFHD			LBHD			RBHD			C7			T10			CLAV			STRN			RBAK			LSHO			LUPA			LELB			LFRM			LWRA			LWRB			LFIN			RSHO			RUPA			RELB			RFRM			RWRA			RWRB			RFIN			LASI			RASI			LPSI			RPSI			LTHI			LKNE			LTIB			LANK			LHEE			LTOE			RTHI			RKNE			RTIB			RANK			RHEE			RTOE			*39			*40			*41			*42			*43			
		X1	Y1	Z1	X2	Y2	Z2	X3	Y3	Z3	X4	Y4	Z4	X5	Y5	Z5	X6	Y6	Z6	X7	Y7	Z7	X8	Y8	Z8	X9	Y9	Z9	X10	Y10	Z10	X11	Y11	Z11	X12	Y12	Z12	X13	Y13	Z13	X14	Y14	Z14	X15	Y15	Z15	X16	Y16	Z16	X17	Y17	Z17	X18	Y18	Z18	X19	Y19	Z19	X20	Y20	Z20	X21	Y21	Z21	X22	Y22	Z22	X23	Y23	Z23	X24	Y24	Z24	X25	Y25	Z25	X26	Y26	Z26	X27	Y27	Z27	X28	Y28	Z28	X29	Y29	Z29	X30	Y30	Z30	X31	Y31	Z31	X32	Y32	Z32	X33	Y33	Z33	X34	Y34	Z34	X35	Y35	Z35	X36	Y36	Z36	X37	Y37	Z37	X38	Y38	Z38	X39	Y39	Z39	X40	Y40	Z40	X41	Y41	Z41	X42	Y42	Z42	X43	Y43	Z43	X44	Y44	Z44	

51	0.500	-884.92456	-3.77915	1615.79907	-1015.50220	-25.48304	1621.70825	-913.57202	128.79829	1567.72253	-1040.60364	105.65810	1577.84534	-977.71954	123.49528	1414.50635	-996.43475	155.51654	1084.64294	-977.77942	12.91671	1337.49646	-983.34070	-27.71374	1163.00586	-1068.38062	194.85605	1248.69690	-816.42413	75.53905	1360.24158	-751.52295	134.60756	1168.50159	-743.69086	179.10904	1065.47058	-712.27441	214.11842	922.27795	-729.16498	190.40446	789.10632	-714.54962	256.78314	810.42126	-699.24060	253.47015	720.95905	-1137.62036	57.54264	1381.05981	-1247.06091	93.42034	1196.28906	-1271.68640	76.85010	1082.14014	-1284.66089	3.12592	994.43433	-1236.72803	-122.80959	927.82062	-1278.67334	-85.75457	891.42291	-1273.06653	-163.12068	860.51038	-902.73938	-39.42551	934.52411	-1118.81616	-12.96044	933.59167	-907.34436	120.21410	950.21417	-1074.58313	134.02959	955.18732	-831.17889	-63.39057	630.66376	-861.01141	-128.92226	484.59943	-866.66614	-164.13681	228.97684	-907.07581	-208.58521	62.50025	-953.66486	-172.54253	41.60475	-912.94873	-353.87158	67.31419	-1164.93591	84.99043	600.57355	-1147.74146	106.05284	473.44485	-1132.67908	299.54352	281.23672	-1087.02075	431.89005	152.13074	-1042.24084	475.51834	161.00517	-1082.11731	341.34256	31.72371	-954.38068	84.35931	1665.49023												 
52	0.510	-883.69928	-19.74170	1615.30481	-1014.45197	-41.02721	1621.09473	-912.01495	112.87740	1566.97595	-1039.13660	90.05843	1577.04224	-975.98657	107.93322	1413.24341	-994.90961	137.67563	1083.14673	-976.50964	-3.48324	1337.07886	-982.38562	-45.14045	1162.73462	-1066.24878	178.55910	1246.74829	-815.02313	58.92742	1359.56885	-750.09631	118.17458	1168.30615	-742.52368	162.47928	1065.16687	-711.45221	198.66443	922.18048	-728.67450	175.70576	788.89600	-714.30579	241.96112	810.46100	-699.18079	238.94662	720.86188	-1136.17554	42.42958	1380.38306	-1245.32898	78.24505	1195.29419	-1269.67090	61.33236	1081.09595	-1282.93469	-12.27947	993.38788	-1235.31104	-138.09491	926.57275	-1277.18921	-101.03644	890.23230	-1271.35437	-178.36490	859.03455	-902.45349	-58.04690	934.40112	-1117.91846	-31.14999	932.70325	-905.76953	101.60221	950.05969	-1073.21826	115.72166	953.69519	-829.94098	-83.14037	630.49213	-859.15924	-147.72198	484.76245	-867.00348	-179.08771	229.32645	-905.92212	-213.71191	62.66853	-951.54620	-175.87271	44.02004	-915.36133	-359.54550	58.70298	-1166.33667	63.53112	597.46814	-1150.81665	81.73227	469.83664	-1132.82727	280.58005	285.39581	-1086.19312	417.78754	162.74947	-1040.28931	458.66046	174.76434	-1081.99988	339.70926	33.04120	-953.05585	68.64164	1664.74536												 
53	0.520	-882.54785	-35.52484	1615.33167	-1013.33496	-56.33933	1621.20215	-910.47003	96.99161	1566.57471	-1037.56128	74.65122	1576.69141	-974.09576	91.82088	1412.75159	-994.24310	120.26708	1082.14441	-975.42969	-19.72118	1336.99255	-981.55731	-61.91095	1162.63123	-1063.70825	162.16292	1245.38513	-813.54199	41.95507	1359.07788	-748.64435	101.25204	1168.04468	-741.30304	146.07774	1064.87329	-710.52441	182.21251	921.88934	-728.43280	159.96501	788.59296	-713.72430	226.07402	810.33856	-698.77167	223.55782	720.83624	-1134.99536	27.29230	1380.05481	-1243.70825	62.97215	1194.35657	-1267.80994	46.23802	1080.09192	-1280.93872	-27.25647	992.08722	-1233.90393	-152.83652	924.77191	-1275.59802	-115.61051	888.60663	-1269.85034	-192.73303	857.00928	-901.70636	-76.42799	934.67041	-1116.85925	-49.02835	931.62860	-904.88849	83.87997	951.19952	-1072.38928	97.62128	952.22784	-828.65576	-101.77086	632.23529	-858.56354	-167.36768	487.66022	-864.68042	-193.09686	231.95027	-905.04968	-218.59029	62.19315	-949.76923	-178.38788	45.39464	-916.58649	-363.19693	53.95067	-1167.64807	41.68365	594.21155	-1154.00183	57.12188	466.33759	-1133.09290	259.56049	289.81058	-1085.16516	401.47809	173.65614	-1038.89722	439.60529	188.99634	-1082.05835	335.17648	36.37523	-951.58044	53.30961	1664.49658												 
54	0.530	-881.41461	-51.07888	1615.32568	-1012.19244	-71.55258	1621.51636	-908.99164	81.24504	1566.41785	-1036.08838	59.30346	1576.71448	-972.48486	75.53351	1412.77637	-993.82922	103.18445	1081.64624	-974.53314	-35.83788	1337.08508	-980.82440	-78.55780	1162.78979	-1061.46460	145.87892	1244.60254	-812.15210	24.62719	1358.79651	-747.10010	83.63483	1167.77454	-739.97083	128.72014	1064.58899	-709.56989	164.99223	921.57434	-728.52246	143.18912	788.18176	-712.67285	209.05826	810.13116	-698.69305	206.76042	720.51813	-1134.08899	11.93402	1380.05310	-1242.15967	48.23782	1193.85132	-1265.93750	31.41376	1079.31897	-1279.32275	-41.30289	990.74921	-1232.49023	-166.76363	922.42511	-1274.24036	-129.19684	886.63519	-1268.62646	-206.06760	854.37775	-900.39636	-94.29779	935.44238	-1115.82275	-66.46216	930.57220	-905.15436	67.00285	952.93982	-1072.55896	80.13450	950.58417	-828.15985	-121.13085	636.28809	-859.14764	-187.68858	491.81256	-862.63184	-203.57802	234.54860	-903.55658	-220.97194	63.49604	-947.91425	-179.50717	47.36796	-917.19843	-366.07040	47.78273	-1168.54993	19.50892	591.47516	-1156.76379	32.13610	463.38684	-1133.37073	236.77115	294.66785	-1084.01978	382.39279	185.03621	-1037.04651	417.96097	203.31502	-1081.81287	328.99704	40.42346	-950.04114	38.04408	1664.50928												 
55	0.540	-880.33466	-66.82906	1615.59546	-1011.14642	-86.81136	1621.83899	-907.52496	65.53622	1566.27344	-1034.70532	43.99803	1576.77197	-971.15942	59.52292	1413.32458	-993.66431	86.51218	1081.59656	-973.80591	-51.78946	1337.29858	-980.24146	-94.74565	1162.98950	-1059.67798	129.69856	1244.36279	-811.06720	7.04993	1358.76880	-745.62555	65.41053	1167.48682	-738.54034	110.24521	1064.20081	-708.35663	146.41803	921.05487	-728.72784	125.12716	787.81146	-711.86060	190.73439	809.64343	-698.64874	188.17451	719.85443	-1133.27478	-3.65842	1380.30286	-1240.01501	33.53164	1193.60254	-1263.87634	16.86129	1078.84778	-1277.47021	-55.01294	989.36725	-1231.18481	-179.94435	919.64996	-1272.76294	-141.75093	884.22192	-1267.68921	-218.34314	851.30048	-898.94769	-111.62591	936.97742	-1114.55994	-83.30209	929.53064	-906.23846	51.59340	954.47607	-1073.39709	63.30069	949.00610	-826.77649	-140.48344	640.54944	-859.91901	-205.30876	494.67804	-860.85571	-213.14589	236.36937	-903.22479	-224.28639	63.65252	-946.68427	-182.79613	48.26327	-917.36578	-368.97592	42.88365	-1169.08716	-2.95187	589.40942	-1158.78687	6.06340	461.22897	-1133.67566	211.93404	299.51532	-1083.13440	360.58307	195.94514	-1035.49805	393.15683	217.08023	-1081.91272	320.95892	44.93278	-948.62476	22.70385	1664.49426												 
56	0.550	-879.14716	-82.30820	1615.85156	-1010.07556	-102.03627	1622.35376	-906.13806	49.90638	1566.07422	-1033.34839	28.71472	1576.82336	-969.83875	43.34984	1413.57056	-993.31555	70.52614	1082.12964	-973.19141	-67.94200	1337.63586	-979.79010	-110.90571	1163.32227	-1058.42554	113.79122	1244.62183	-810.14673	-10.54737	1358.99561	-744.32330	46.74258	1167.18835	-737.17682	91.45520	1063.84644	-707.46484	127.02698	920.38287	-728.96991	105.96206	787.39948	-710.32465	171.28117	809.18323	-698.54504	168.59589	719.08478	-1132.44128	-19.39571	1380.71777	-1238.37573	18.85648	1193.82751	-1261.63000	2.50439	1078.67554	-1275.60999	-68.31207	988.05774	-1229.84082	-192.38077	916.39240	-1271.56030	-153.60284	881.73743	-1266.72571	-229.56313	847.56317	-897.28540	-128.08086	938.72778	-1113.40698	-100.02445	929.04523	-907.21527	36.32293	955.07843	-1074.33411	47.09704	947.54718	-825.14563	-158.26590	643.65033	-859.66394	-220.05664	495.54861	-860.46527	-222.62874	236.79607	-904.18018	-227.13673	63.70486	-947.55695	-183.77104	49.90319	-917.19305	-370.39597	40.21384	-1169.39307	-25.58894	588.09308	-1160.13098	-21.12816	459.98718	-1134.35107	185.14191	303.77060	-1082.53149	336.26947	205.26448	-1033.98914	365.44720	229.02599	-1082.06030	311.17133	49.59822	-947.25519	7.42428	1664.53174												 
57	0.560	-878.04382	-97.63049	1616.38013	-1008.98376	-117.20393	1623.33789	-905.02771	34.29919	1565.98425	-1032.21008	13.35628	1577.16248	-968.73840	27.55658	1413.98828	-993.02478	54.83862	1082.87390	-972.71613	-83.89101	1338.24487	-979.51208	-126.92623	1163.85168	-1057.52856	98.30220	1245.39539	-809.32654	-28.00586	1359.44202	-743.21643	27.76779	1166.90125	-735.92731	72.59012	1063.58887	-706.30237	106.78957	919.67950	-729.32410	85.71851	786.92145	-708.85468	150.64886	808.41913	-698.32867	147.62791	718.08490	-1131.65002	-35.19838	1381.33484	-1236.80554	4.29842	1194.13696	-1259.41846	-11.62708	1078.67810	-1273.70703	-81.08020	986.73431	-1228.55017	-204.09782	912.73303	-1270.16150	-164.36858	878.89618	-1265.83875	-239.69861	843.32379	-895.83862	-143.69823	940.42450	-1112.40552	-116.34874	929.10675	-907.81152	21.14081	955.34827	-1074.80664	31.29936	946.55914	-824.40686	-172.73122	644.33289	-859.09772	-233.12816	495.13705	-861.49841	-231.65010	235.28532	-905.53107	-229.04333	63.78463	-948.24030	-185.85153	50.07333	-918.59363	-371.95264	38.34926	-1169.40027	-48.40679	587.37439	-1160.73926	-48.89463	459.58264	-1135.26331	156.70041	307.08499	-1082.02356	309.75711	212.61752	-1032.48682	335.36673	238.92424	-1081.62134	298.92346	54.52556	-945.86438	-7.54303	1664.77222												 
